<?xml version="1.0" encoding="utf-8"?>
<!-- Generator: Adobe Illustrator 24.0.2, SVG Export Plug-In . SVG Version: 6.00 Build 0)  -->
<svg version="1.1" xmlns="http://www.w3.org/2000/svg" xmlns:xlink="http://www.w3.org/1999/xlink" x="0px" y="0px"
	 viewBox="0 0 279.12 180.31" style="enable-background:new 0 0 279.12 180.31;" xml:space="preserve">
<style type="text/css">
	.st0{fill:#0F60A2;}
	.st1{fill:#83E7CD;}
</style>
<g id="Layer_1">
</g>
<g id="Layer_2">
	<g>
		<g>
			<path class="st0" d="M34.84,116.9H16.73v4.9H33.9v3.06H16.73v6.59H9.92v-17.68h24.92V116.9z"/>
			<path class="st0" d="M45.33,116.86c-0.77,0.36-1.74,0.54-2.89,0.54c-1.15,0-2.11-0.18-2.86-0.54c-0.76-0.36-1.14-0.82-1.14-1.38
				c0-0.57,0.38-1.04,1.14-1.41c0.76-0.37,1.71-0.56,2.86-0.56c1.15,0,2.11,0.19,2.89,0.56c0.77,0.37,1.16,0.84,1.16,1.41
				C46.49,116.04,46.1,116.5,45.33,116.86z M39.13,131.45v-12.48h6.56v12.48H39.13z"/>
			<path class="st0" d="M65.14,118.72c3.13,0,5.61,0.52,7.45,1.55c1.84,1.04,2.76,2.44,2.76,4.2v6.97h-6.56v-6.77
				c0-0.96-0.47-1.7-1.41-2.24c-0.94-0.53-2.23-0.8-3.87-0.8c-1.78,0-3.21,0.3-4.29,0.91c-1.09,0.61-1.63,1.39-1.63,2.35v6.54h-6.56
				v-12.48h5.68l0.44,1.44C59.15,119.28,61.82,118.72,65.14,118.72z"/>
			<path class="st0" d="M100.57,118.97h5.67v12.48h-5.67l-0.44-1.52c-2.07,1.2-4.89,1.79-8.44,1.79c-3.49,0-6.33-0.61-8.54-1.82
				c-2.2-1.21-3.31-2.78-3.31-4.7c0-1.92,1.1-3.49,3.31-4.7c2.2-1.21,5.05-1.82,8.54-1.82c3.59,0,6.4,0.59,8.44,1.77L100.57,118.97z
				 M93.02,128.8c1.97,0,3.59-0.34,4.84-1.01c1.25-0.67,1.88-1.53,1.88-2.58c0-1.04-0.63-1.9-1.88-2.58
				c-1.25-0.67-2.86-1.01-4.84-1.01c-1.94,0-3.54,0.34-4.79,1.01c-1.25,0.67-1.88,1.53-1.88,2.58c0,1.04,0.63,1.9,1.88,2.58
				C89.49,128.46,91.08,128.8,93.02,128.8z"/>
			<path class="st0" d="M126.68,118.72c3.13,0,5.61,0.52,7.45,1.55c1.84,1.04,2.76,2.44,2.76,4.2v6.97h-6.56v-6.77
				c0-0.96-0.47-1.7-1.41-2.24c-0.94-0.53-2.23-0.8-3.87-0.8c-1.78,0-3.21,0.3-4.29,0.91c-1.09,0.61-1.63,1.39-1.63,2.35v6.54h-6.56
				v-12.48h5.68l0.44,1.44C120.69,119.28,123.36,118.72,126.68,118.72z"/>
			<path class="st0" d="M154.61,131.73c-4.01,0-7.22-0.59-9.62-1.77c-2.4-1.18-3.6-2.76-3.6-4.75c0-1.95,1.21-3.53,3.63-4.72
				c2.42-1.2,5.58-1.79,9.5-1.79c3.62,0,6.74,0.65,9.38,1.94l-3.8,2.1c-1.45-0.74-3.22-1.11-5.33-1.11c-2.04,0-3.69,0.33-4.96,1
				c-1.27,0.67-1.9,1.53-1.9,2.59s0.63,1.92,1.9,2.59c1.27,0.67,2.92,1,4.96,1c2.24,0,4.11-0.4,5.63-1.21l3.85,2.12
				C161.5,131.05,158.29,131.73,154.61,131.73z"/>
			<path class="st0" d="M179.09,118.72c4.41,0,7.76,0.69,10.04,2.06c2.29,1.37,3.15,3.22,2.59,5.54h-18.8
				c0.23,0.79,0.98,1.42,2.25,1.89c1.27,0.47,2.87,0.71,4.81,0.71c2.83,0,5.1-0.4,6.81-1.19l3.65,1.92
				c-2.7,1.41-6.27,2.12-10.71,2.12c-4.11,0-7.39-0.59-9.82-1.77c-2.44-1.18-3.65-2.77-3.65-4.77c0-1.94,1.18-3.51,3.55-4.71
				C172.18,119.32,175.27,118.72,179.09,118.72z M179.29,121.47c-1.74,0-3.17,0.23-4.27,0.69c-1.1,0.46-1.77,1.11-2,1.93h12.54
				c-0.13-0.81-0.76-1.45-1.88-1.92C182.56,121.71,181.09,121.47,179.29,121.47z"/>
			<path class="st0" d="M223.16,121.22h15.54v7.65c-3.68,1.97-8.49,2.96-14.41,2.96c-5.46,0-9.84-0.84-13.13-2.51
				c-3.29-1.68-4.94-3.91-4.94-6.71c0-2.71,1.72-4.92,5.16-6.64c3.44-1.72,7.89-2.58,13.35-2.58c5.2,0,9.54,0.93,13.03,2.78
				l-4.24,2.17c-2.4-1.23-5.35-1.84-8.83-1.84c-3.52,0-6.34,0.56-8.46,1.68c-2.12,1.12-3.18,2.6-3.18,4.43
				c0,1.85,1.03,3.33,3.08,4.44c2.06,1.11,4.79,1.67,8.22,1.67c3.36,0,6.13-0.47,8.34-1.41v-3.18h-9.52V121.22z"/>
			<path class="st0" d="M265.6,129.91c-2.4,1.21-5.59,1.82-9.57,1.82c-3.98,0-7.17-0.61-9.57-1.82s-3.6-2.78-3.6-4.7
				c0-1.92,1.2-3.49,3.6-4.7s5.59-1.82,9.57-1.82c3.98,0,7.17,0.61,9.57,1.82c2.4,1.21,3.6,2.78,3.6,4.7
				C269.2,127.13,268,128.69,265.6,129.91z M251.21,127.77c1.23,0.68,2.84,1.02,4.81,1.02c1.97,0,3.58-0.34,4.81-1.02
				c1.23-0.68,1.85-1.54,1.85-2.56c0-1.03-0.62-1.88-1.85-2.56c-1.23-0.68-2.84-1.02-4.81-1.02c-1.97,0-3.58,0.34-4.81,1.02
				c-1.23,0.68-1.85,1.54-1.85,2.56C249.36,126.24,249.98,127.09,251.21,127.77z"/>
		</g>
		<path class="st0" d="M56.93,74.15c0,0,19.47,22.21,67.22,22.21c44.82,0,60.8-18.64,60.8-18.64l-12.12-3.84
			c0,0,48.31-18.92,48.12-18.55s-10.1,29.88-10.1,29.88l-12.67-3.56c0,0-10.29,15.35-44.45,22.57
			c-34.12,7.21-75.67,3.02-104.33-15.44L56.93,74.15z"/>
		<path class="st0" d="M123.42,94.61v-37.5l-15.98,6.07v30.57c4.47,0.54,9.33,0.87,14.51,0.87
			C122.45,94.62,122.93,94.61,123.42,94.61z"/>
		<path class="st1" d="M95.69,66.24v25.52c2.54,0.56,5.3,1.08,8.27,1.52V72.05L95.69,66.24z"/>
		<path class="st0" d="M93.12,66.01l-15.8,5.85l-0.18,13.98c0,0,5.94,2.86,15.98,5.31V66.01z"/>
		<path class="st0" d="M153.48,48.49l-15.73,5.83v39.62c6.43-0.58,11.65-1.47,15.73-2.39V48.49z"/>
		<path class="st1" d="M156.05,48.58v42.35c6.18-1.58,9.06-3.08,9.06-3.08V54.32L156.05,48.58z"/>
		<path class="st1" d="M134.81,63.36l-8.82-5.72v36.93c3.18-0.07,6.16-0.2,8.92-0.4C135.47,91.17,134.81,63.36,134.81,63.36z"/>
		<path class="st1" d="M140.08,107.75c0,0,41.14-2.68,60.73-22.42l8.57,2.19C209.38,87.52,183.18,108.72,140.08,107.75z"/>
	</g>
</g>
</svg>
